<svg xmlns="http://www.w3.org/2000/svg" width="14" height="14" viewBox="0 0 14 14">
    <path fill="#DDCB78" fill-rule="nonzero" d="M7 .5a6.5 6.5 0 1 1 0 13 6.5 6.5 0 0 1 0-13zM5.852 9.772L3.24 11.014A5.48 5.48 0 0 0 7 12.5l-.18-.004-.968-2.724zm2.296 0l-.97 2.725a5.48 5.48 0 0 0 3.582-1.483L8.148 9.772zM1.503 7.179a5.48 5.48 0 0 0 1.484 3.582l1.241-2.613zm10.993 0l-2.724.97 1.24 2.612A5.48 5.48 0 0 0 12.5 7l-.004.179zM7.001 5.434A1.567 1.567 0 1 0 7 8.567a1.567 1.567 0 0 0 0-3.133zM2.987 3.239A5.48 5.48 0 0 0 1.5 7l.003-.179 2.725-.968zm8.028.002L9.773 5.853l2.724.968a5.48 5.48 0 0 0-1.482-3.58zM7.179 1.503l.97 2.725 2.612-1.24A5.48 5.48 0 0 0 7 1.5l.179.003zm-.358 0A5.48 5.48 0 0 0 3.24 2.987l2.614 1.241z"/>
</svg>